<svg xmlns="http://www.w3.org/2000/svg" viewBox="0 0 800 600" width="800" height="600" role="img" aria-label="decorative artwork"><defs><linearGradient id="g12" x1="0" y1="0" x2="1" y2="1"><stop offset="0%" stop-color="#2A2438"/><stop offset="100%" stop-color="#5C6E91"/></linearGradient></defs><rect width="800" height="600" fill="url(#g12)"/><path d="M 459 86 A 74 74 0 0 1 607 86" fill="none" stroke="#E9C46A" stroke-width="8" opacity="0.31"/><polygon points="450,198 362,388 705,479" fill="#ffffff" opacity="0.36"/><rect x="47" y="491" width="141" height="79" fill="#E9C46A" opacity="0.39" transform="rotate(13 47 491)" rx="6"/><polygon points="747,-32 720,-60 677,-74" fill="#ffffff" opacity="0.23"/><path d="M 199 81 A 140 140 0 0 1 478 81" fill="none" stroke="#E9C46A" stroke-width="11" opacity="0.14"/><rect x="444" y="304" width="144" height="81" fill="#ffffff" opacity="0.38" transform="rotate(8 444 304)" rx="6"/><path d="M 343 384 A 90 90 0 0 1 523 384" fill="none" stroke="#E9C46A" stroke-width="6" opacity="0.29"/><polygon points="691,370 624,111 828,263" fill="#E9C46A" opacity="0.4"/></svg>